<?xml version="1.0" standalone="no"?><svg xmlns="http://www.w3.org/2000/svg" viewBox="0 0 1440 320"><path fill="#fff" fill-opacity="1" d="M0,192L26.7,197.3C53.3,203,107,213,160,218.7C213.3,224,267,224,320,240C373.3,256,427,288,480,261.3C533.3,235,587,149,640,149.3C693.3,149,747,235,800,234.7C853.3,235,907,149,960,117.3C1013.3,85,1067,107,1120,128C1173.3,149,1227,171,1280,197.3C1333.3,224,1387,256,1413,272L1440,288L1440,320L1413.3,320C1386.7,320,1333,320,1280,320C1226.7,320,1173,320,1120,320C1066.7,320,1013,320,960,320C906.7,320,853,320,800,320C746.7,320,693,320,640,320C586.7,320,533,320,480,320C426.7,320,373,320,320,320C266.7,320,213,320,160,320C106.7,320,53,320,27,320L0,320Z"></path></svg>